<?xml version="1.0" standalone="no"?>
<!DOCTYPE svg PUBLIC "-//W3C//DTD SVG 20010904//EN"
 "http://www.w3.org/TR/2001/REC-SVG-20010904/DTD/svg10.dtd">
<svg version="1.0" xmlns="http://www.w3.org/2000/svg"
 width="25" height="25" viewBox="0 0 100.000000 100.000000"
 preserveAspectRatio="xMidYMid meet">

<g transform="translate(0.000000,100.000000) scale(0.100000,-0.100000)"
fill="#FFF" stroke="none">
<path d="M365 933 c-125 -45 -215 -125 -273 -242 -34 -69 -37 -82 -39 -175 -4
-120 18 -201 52 -201 23 0 23 8 0 110 -77 329 298 598 595 427 43 -25 44 -26
20 -32 -16 -4 -25 -13 -25 -25 0 -18 6 -20 60 -17 33 2 64 7 69 12 15 15 -6
125 -24 125 -9 0 -16 -11 -18 -25 l-3 -26 -79 40 c-75 37 -87 40 -182 43 -81
3 -114 0 -153 -14z"/>
<path d="M881 691 c-10 -7 -10 -18 3 -62 24 -88 28 -133 17 -194 -32 -172
-154 -296 -325 -331 -69 -14 -83 -14 -152 0 -86 17 -186 68 -146 74 26 4 40
28 25 43 -16 16 -122 -1 -127 -20 -10 -30 8 -116 24 -116 9 0 16 11 18 26 l3
26 81 -41 80 -41 117 0 c115 0 118 1 192 37 98 48 169 119 216 216 33 66 38
85 41 167 6 131 -28 240 -67 216z"/>
</g>
</svg>
