<?xml version="1.0" standalone="no"?>
<!DOCTYPE svg PUBLIC "-//W3C//DTD SVG 20010904//EN"
 "http://www.w3.org/TR/2001/REC-SVG-20010904/DTD/svg10.dtd">
<svg version="1.0" xmlns="http://www.w3.org/2000/svg"
 width="25" height="25" viewBox="0 0 100.000000 100.000000"
 preserveAspectRatio="xMidYMid meet">

<g transform="translate(0.000000,100.000000) scale(0.100000,-0.100000)"
fill="#FFF" stroke="none">
<path d="M436 755 c-79 -28 -129 -103 -128 -191 0 -64 47 -167 116 -258 72
-95 81 -95 148 -3 109 149 143 269 99 354 -25 50 -70 89 -119 103 -48 13 -68
12 -116 -5z m114 -125 c29 -29 35 -66 16 -96 -34 -51 -98 -51 -132 0 -30 48 8
116 66 116 17 0 39 -9 50 -20z"/>
</g>
</svg>
