<?xml version="1.0" standalone="no"?>
<!DOCTYPE svg PUBLIC "-//W3C//DTD SVG 20010904//EN"
 "http://www.w3.org/TR/2001/REC-SVG-20010904/DTD/svg10.dtd">
<svg version="1.0" xmlns="http://www.w3.org/2000/svg"
 width="25" height="25" viewBox="0 0 400.000000 400.000000"
 preserveAspectRatio="xMidYMid meet">

<g transform="translate(0.000000,400.000000) scale(0.100000,-0.100000)"
fill="#FFF" stroke="none">
<path d="M2682 3954 c-47 -32 -52 -60 -52 -269 0 -154 3 -202 15 -225 31 -61
91 -77 140 -38 48 38 55 71 55 265 0 157 -2 181 -20 218 -30 61 -90 83 -138
49z"/>
<path d="M1941 3555 c-37 -32 -55 -84 -47 -139 10 -61 191 -297 244 -317 39
-15 89 13 112 63 37 81 23 121 -99 278 -113 145 -149 165 -210 115z"/>
<path d="M3396 3537 c-23 -24 -75 -87 -116 -141 l-75 -99 0 -68 c0 -61 3 -71
29 -98 63 -65 103 -48 212 91 115 147 124 164 124 221 0 81 -43 137 -104 137
-22 0 -40 -11 -70 -43z"/>
<path d="M2645 3126 c-239 -59 -405 -312 -407 -622 -2 -260 108 -481 292 -591
110 -65 255 -71 374 -15 137 64 253 218 302 402 25 91 25 301 1 390 -62 231
-224 406 -406 440 -66 12 -92 12 -156 -4z m193 -292 c200 -99 240 -448 72
-620 -159 -164 -387 -73 -451 179 -16 67 -7 199 20 269 27 69 96 148 153 176
62 30 140 29 206 -4z"/>
<path d="M175 2987 c-56 -56 -59 -149 -7 -205 21 -22 45 -33 105 -46 117 -26
223 -84 294 -159 56 -61 124 -170 112 -182 -4 -3 -19 0 -35 6 -16 6 -79 14
-140 16 -96 5 -122 3 -185 -16 -86 -26 -141 -56 -222 -120 -95 -75 -120 -152
-75 -232 23 -42 65 -64 102 -55 13 3 49 26 80 52 31 25 82 57 113 71 94 43
233 43 337 -1 l34 -14 -43 -106 c-136 -328 -223 -691 -243 -1016 -9 -133 -1
-428 13 -491 6 -28 5 -31 -11 -26 -131 41 -268 57 -316 38 -63 -24 -90 -140
-48 -208 26 -43 40 -49 152 -62 108 -12 164 -31 283 -96 130 -71 220 -96 360
-102 176 -8 252 9 440 101 173 84 226 99 350 100 128 0 202 -19 332 -86 171
-88 244 -110 389 -116 176 -7 251 11 439 102 174 85 225 100 355 100 129 0
180 -15 355 -100 161 -79 252 -104 367 -104 70 0 95 14 122 67 22 43 20 88 -4
139 -24 49 -47 60 -145 69 -104 10 -137 20 -290 96 -185 91 -235 104 -405 104
-170 0 -220 -13 -410 -107 -182 -90 -274 -109 -429 -90 -87 11 -110 19 -251
87 -210 101 -243 109 -415 110 -175 0 -223 -12 -410 -105 -77 -38 -160 -74
-185 -81 -63 -18 -284 -17 -335 2 -36 13 -41 19 -53 64 -40 158 -55 480 -31
680 29 252 90 491 191 748 58 148 50 147 127 17 96 -161 140 -330 120 -457
-26 -170 -22 -203 29 -243 57 -46 126 -12 156 77 69 202 29 482 -104 731 -47
86 -40 89 62 35 87 -45 194 -148 271 -259 67 -96 96 -113 150 -90 58 24 88
104 64 172 -22 63 -104 172 -206 275 -151 150 -282 216 -455 228 l-89 6 -23
87 c-88 332 -294 542 -601 612 -96 22 -100 21 -138 -17z"/>
<path d="M1642 2614 c-33 -23 -52 -67 -52 -119 0 -52 19 -96 52 -119 31 -22
286 -23 327 -1 75 38 81 189 10 239 -34 23 -304 24 -337 0z"/>
<path d="M3481 2604 c-61 -51 -64 -153 -5 -211 l32 -33 147 0 147 0 33 33 c58
58 56 159 -2 213 -25 23 -32 24 -174 24 -144 0 -148 -1 -178 -26z"/>
<path d="M2123 1888 c-26 -13 -208 -243 -223 -283 -33 -88 21 -189 102 -187
16 0 39 9 50 19 38 34 190 236 205 271 22 53 9 118 -32 159 -34 34 -63 40
-102 21z"/>
<path d="M3262 1886 c-39 -21 -62 -66 -62 -121 0 -59 9 -75 124 -223 109 -139
149 -156 212 -91 26 27 29 37 29 98 l0 68 -75 99 c-138 180 -169 204 -228 170z"/>
<path d="M2705 1590 c-11 -4 -31 -20 -45 -35 -25 -26 -25 -29 -28 -233 -4
-229 2 -258 59 -288 39 -19 62 -18 94 8 48 38 55 71 55 265 0 155 -3 184 -20
221 -14 31 -29 47 -54 57 -20 8 -37 15 -38 14 -2 0 -12 -4 -23 -9z"/>
</g>
</svg>
