<?xml version="1.0" standalone="no"?>
<!DOCTYPE svg PUBLIC "-//W3C//DTD SVG 20010904//EN"
 "http://www.w3.org/TR/2001/REC-SVG-20010904/DTD/svg10.dtd">
<svg version="1.0" xmlns="http://www.w3.org/2000/svg"
 width="25" height="25" viewBox="0 0 400.000000 400.000000"
 preserveAspectRatio="xMidYMid meet">

<g transform="translate(0.000000,400.000000) scale(0.100000,-0.100000)"
fill="#FFF" stroke="none">
<path d="M175 2987 c-56 -56 -59 -149 -7 -205 21 -22 45 -33 105 -46 117 -26
223 -84 294 -159 56 -61 124 -170 112 -182 -4 -3 -19 0 -35 6 -16 6 -79 14
-140 16 -96 5 -122 3 -185 -16 -86 -26 -141 -56 -222 -120 -95 -75 -120 -152
-75 -232 23 -42 65 -64 102 -55 13 3 49 26 80 52 31 25 82 57 113 71 94 43
233 43 337 -1 l34 -14 -43 -106 c-136 -328 -223 -691 -243 -1016 -9 -133 -1
-428 13 -491 6 -28 5 -31 -11 -26 -131 41 -268 57 -316 38 -63 -24 -90 -140
-48 -208 26 -43 40 -49 152 -62 108 -12 164 -31 283 -96 130 -71 220 -96 360
-102 176 -8 252 9 440 101 173 84 226 99 350 100 128 0 202 -19 332 -86 171
-88 244 -110 389 -116 176 -7 251 11 439 102 174 85 225 100 355 100 129 0
180 -15 355 -100 161 -79 252 -104 367 -104 70 0 95 14 122 67 22 43 20 88 -4
139 -24 49 -47 60 -145 69 -104 10 -137 20 -290 96 -185 91 -235 104 -405 104
-170 0 -220 -13 -410 -107 -182 -90 -274 -109 -429 -90 -87 11 -110 19 -251
87 -210 101 -243 109 -415 110 -175 0 -223 -12 -410 -105 -77 -38 -160 -74
-185 -81 -63 -18 -284 -17 -335 2 -36 13 -41 19 -53 64 -40 158 -55 480 -31
680 29 252 90 491 191 748 58 148 50 147 127 17 96 -161 140 -330 120 -457
-26 -170 -22 -203 29 -243 57 -46 126 -12 156 77 69 202 29 482 -104 731 -47
86 -40 89 62 35 87 -45 194 -148 271 -259 67 -96 96 -113 150 -90 58 24 88
104 64 172 -22 63 -104 172 -206 275 -151 150 -282 216 -455 228 l-89 6 -23
87 c-88 332 -294 542 -601 612 -96 22 -100 21 -138 -17z"/>
</g>
</svg>
