
<svg version="1.0" xmlns="http://www.w3.org/2000/svg"
 width="25" height="25" viewBox="0 0 64.000000 64.000000"
 preserveAspectRatio="xMidYMid meet">

<g transform="translate(0.000000,64.000000) scale(0.100000,-0.100000)"
fill="#FFF" stroke="none">
<path d="M320 622 c0 -16 9 -21 43 -26 117 -18 214 -115 233 -234 5 -33 11
-42 27 -42 18 0 19 5 14 45 -19 135 -137 253 -272 272 -41 5 -45 4 -45 -15z"/>
<path d="M74 590 c-36 -14 -74 -69 -74 -105 0 -215 180 -428 398 -474 84 -17
117 -14 152 16 87 73 45 154 -88 170 -39 4 -50 2 -66 -16 -24 -27 -52 -27 -96
0 -51 30 -79 58 -111 108 -34 53 -36 81 -8 107 18 16 20 27 16 66 -8 63 -32
113 -63 127 -29 13 -32 13 -60 1z"/>
<path d="M320 502 c0 -15 9 -21 35 -26 51 -10 103 -60 117 -112 9 -33 17 -44
31 -44 17 0 19 5 14 35 -13 77 -84 149 -161 162 -31 5 -36 3 -36 -15z"/>
<path d="M320 385 c0 -18 47 -65 65 -65 23 0 18 28 -10 55 -27 28 -55 33 -55
10z"/>
</g>
</svg>
