
<svg version="1.0" xmlns="http://www.w3.org/2000/svg"
 width="25" height="25" viewBox="0 0 64.000000 64.000000"
 preserveAspectRatio="xMidYMid meet">

<g transform="translate(0.000000,64.000000) scale(0.100000,-0.100000)"
fill="#FFF" stroke="none">
<path d="M62 580 c-50 -31 -67 -80 -54 -158 32 -191 207 -373 398 -412 72 -15
120 -6 156 31 24 23 29 36 26 65 -4 47 -34 70 -110 86 -54 11 -59 11 -81 -10
-13 -12 -33 -22 -44 -22 -34 0 -116 62 -151 114 -44 67 -49 92 -23 120 25 27
26 45 6 114 -15 48 -52 92 -79 92 -6 0 -26 -9 -44 -20z"/>
</g>
</svg>
