<?xml version="1.0"?>
<svg xmlns="http://www.w3.org/2000/svg" viewBox="0 0 50 50" enable-background="new 0 0 50 50">
    <path style="text-indent:0;text-align:start;line-height:normal;text-transform:none;block-progression:tb;-inkscape-font-specification:Bitstream Vera Sans" d="M 26.15625 0.03125 C 25.395508 0.098632813 24.6875 0.5 24.3125 1.1875 C 23.2125 3.2875 25.40625 7.90625 25.40625 7.90625 C 25.40625 7.90625 30.5875 7.3125 31.6875 5.3125 C 32.2875 4.2125 31.9125 2.69375 30.8125 2.09375 C 30.1125 1.69375 29.3875 1.7 28.6875 2 C 28.5875 1.3 28.2 0.7125 27.5 0.3125 C 27.0875 0.0875 26.612695 -0.0091796875 26.15625 0.03125 z M 18.28125 4.9375 C 18.054688 4.9421875 17.81875 4.99375 17.59375 5.09375 C 17.09375 5.29375 16.69375 5.8125 16.59375 6.3125 C 16.19375 6.0125 15.6 5.9875 15 6.1875 C 14.1 6.5875 13.69375 7.6 14.09375 8.5 C 14.79375 10.1 18.5 10.90625 18.5 10.90625 C 18.5 10.90625 20.50625 7.6 19.90625 6 C 19.60625 5.325 18.960938 4.9234375 18.28125 4.9375 z M 12 15 C 9.2504209 15 7 17.250421 7 20 C 7 22.749579 9.2504209 25 12 25 C 14.749579 25 17 22.749579 17 20 C 17 17.250421 14.749579 15 12 15 z M 18.8125 15 A 1.0001 1.0001 0 0 0 18 16 L 18 36 L 12 36 L 6 36 L 6 20 C 6 18.354545 4.6454545 17 3 17 C 1.3545455 17 0 18.354545 0 20 L 0 49 L 0 50 L 1 50 L 5 50 L 6 50 L 6 49 L 6 45 L 44 45 L 44 49 L 44 50 L 45 50 L 49 50 L 50 50 L 50 49 L 50 37.15625 A 1.0001 1.0001 0 0 0 50 37 L 50 36 L 50 20 C 50 17.254545 47.745455 15 45 15 L 19 15 A 1.0001 1.0001 0 0 0 18.90625 15 A 1.0001 1.0001 0 0 0 18.8125 15 z M 12 36 C 14.749579 36 17 33.749579 17 31 C 17 28.250421 14.749579 26 12 26 C 9.2504209 26 7 28.250421 7 31 C 7 33.749579 9.2504209 36 12 36 z M 12 17 C 13.668699 17 15 18.331301 15 20 C 15 21.668699 13.668699 23 12 23 C 10.331301 23 9 21.668699 9 20 C 9 18.331301 10.331301 17 12 17 z M 20 17 L 45 17 C 46.654545 17 48 18.345455 48 20 L 48 36 L 20 36 L 20 17 z M 3 19 C 3.5545455 19 4 19.445455 4 20 L 4 37 L 4 38 L 5 38 L 48 38 L 48 48 L 46 48 L 46 44 L 46 43 L 45 43 L 5 43 L 4 43 L 4 44 L 4 48 L 2 48 L 2 20 C 2 19.445455 2.4454545 19 3 19 z M 31.3125 20 C 28.956944 20 27 21.956944 27 24.3125 C 27 26.600735 28.789362 28.366135 30.375 29.6875 C 31.960638 31.008865 33.53125 31.875 33.53125 31.875 L 34 32.15625 L 34.5 31.875 C 34.5 31.875 36.074148 30.987853 37.65625 29.65625 C 39.238352 28.324647 41 26.568561 41 24.3125 C 41 21.956944 39.043056 20 36.6875 20 C 35.622154 20 34.741559 20.47407 34 21.09375 C 33.233249 20.444842 32.335042 20 31.3125 20 z M 31.3125 22 C 32.10947 22 32.745891 22.353212 33.15625 22.96875 L 33.9375 24.125 L 34.8125 23 C 35.2365 22.434667 35.951136 22 36.6875 22 C 37.931944 22 39 23.068056 39 24.3125 C 39 25.356439 37.761648 26.931603 36.34375 28.125 C 35.162875 29.118903 34.333632 29.564677 33.96875 29.78125 C 33.592353 29.563272 32.791243 29.128119 31.625 28.15625 C 30.210638 26.977615 29 25.424265 29 24.3125 C 29 23.068056 30.068056 22 31.3125 22 z M 12 28 C 13.668699 28 15 29.331301 15 31 C 15 32.668699 13.668699 34 12 34 C 10.331301 34 9 32.668699 9 31 C 9 29.331301 10.331301 28 12 28 z" overflow="visible" enable-background="accumulate" font-family="Bitstream Vera Sans"  fill="#FFF"/>
</svg>
