<?xml version="1.0" encoding="utf-8"?>
<svg viewBox="0 0 50 50" enable-background="new 0 0 50 50" xmlns="http://www.w3.org/2000/svg">
  <path style="text-indent:0;text-align:start;line-height:normal;text-transform:none;block-progression:tb;-inkscape-font-specification:Bitstream Vera Sans" d="M 12 15 C 9.25 15 7 17.25 7 20 C 7 22.75 9.25 25 12 25 C 14.75 25 17 22.75 17 20 C 17 17.25 14.75 15 12 15 Z M 18.813 15 C 18.334 15.091 17.991 15.513 18 16 L 18 36 L 12 36 L 6 36 L 6 20 C 6 18.355 4.645 17 3 17 C 1.355 17 0 18.355 0 20 L 0 49 L 0 50 L 1 50 L 5 50 L 6 50 L 6 49 L 6 45 L 44 45 L 44 49 L 44 50 L 45 50 L 49 50 L 50 50 L 50 49 L 50 37.156 C 50.004 37.104 50.004 37.052 50 37 L 50 36 L 50 20 C 50 17.255 47.745 15 45 15 L 19 15 C 18.969 14.999 18.937 14.999 18.906 15 C 18.875 14.999 18.844 14.999 18.813 15 Z M 12 36 C 14.75 36 17 33.75 17 31 C 17 28.25 14.75 26 12 26 C 9.25 26 7 28.25 7 31 C 7 33.75 9.25 36 12 36 Z M 12 17 C 13.669 17 15 18.331 15 20 C 15 21.669 13.669 23 12 23 C 10.331 23 9 21.669 9 20 C 9 18.331 10.331 17 12 17 Z M 20 17 L 45 17 C 46.655 17 48 18.345 48 20 L 48 36 L 20 36 L 20 17 Z M 3 19 C 3.555 19 4 19.445 4 20 L 4 37 L 4 38 L 5 38 L 48 38 L 48 48 L 46 48 L 46 44 L 46 43 L 45 43 L 5 43 L 4 43 L 4 44 L 4 48 L 2 48 L 2 20 C 2 19.445 2.445 19 3 19 Z M 12 28 C 13.669 28 15 29.331 15 31 C 15 32.669 13.669 34 12 34 C 10.331 34 9 32.669 9 31 C 9 29.331 10.331 28 12 28 Z" overflow="visible" enable-background="accumulate" font-family="Bitstream Vera Sans" fill="#FFF"/>
</svg>