<?xml version="1.0" encoding="utf-8"?>
<svg fill="#000000" viewBox="0 0 26 26" width="26px" height="26px" xmlns="http://www.w3.org/2000/svg">
  <path d="M 10 0.188 C 4.578 0.188 0.188 4.578 0.188 10 C 0.188 15.422 4.578 19.813 10 19.813 C 12.289 19.813 14.395 19.004 16.063 17.688 L 16.938 18.563 C 16.57 19.254 16.699 20.137 17.281 20.719 L 21.875 25.344 C 22.59 26.059 23.754 26.059 24.469 25.344 L 25.344 24.469 C 26.059 23.754 26.059 22.59 25.344 21.875 L 20.719 17.281 C 20.133 16.695 19.254 16.594 18.563 16.969 L 17.688 16.094 C 19.012 14.422 19.813 12.301 19.813 10 C 19.813 4.578 15.422 0.188 10 0.188 Z M 10 2 C 14.418 2 18 5.582 18 10 C 18 14.418 14.418 18 10 18 C 5.582 18 2 14.418 2 10 C 2 5.582 5.582 2 10 2 Z" fill="#FFF"/>
</svg>